<svg version="1.1" id="Layer_1" xmlns="http://www.w3.org/2000/svg" xmlns:xlink="http://www.w3.org/1999/xlink" x="0px" y="0px"
	 width="100%" viewBox="0 0 1024 1024" enable-background="new 0 0 1024 1024" xml:space="preserve">
<path fill="#000000" opacity="1.000000" stroke="none" 
	d="
M578.923462,445.824036 
	C568.304443,459.197083 555.703430,470.166779 544.073120,482.068146 
	C539.302551,486.949890 534.297729,491.617401 529.203125,496.162262 
	C526.135742,498.898590 526.656738,500.820496 529.423157,503.444763 
	C542.957825,516.284058 556.302490,529.323242 569.792725,542.209778 
	C579.866333,551.832642 586.930969,563.321716 588.868530,577.078979 
	C591.034180,592.456055 591.319214,607.971863 585.568054,622.912354 
	C585.222168,623.810852 585.029724,624.768433 584.792847,625.603394 
	C586.364075,627.199463 588.133667,626.591187 589.710022,626.660217 
	C598.698730,627.054138 603.600769,631.676453 603.389954,639.679993 
	C603.203735,646.751038 597.742920,651.371033 589.402100,651.371033 
	C552.578796,651.371277 515.755554,651.341675 478.932281,651.316895 
	C459.104279,651.303528 439.276184,651.247375 419.448273,651.278442 
	C414.037079,651.286926 409.613220,649.639221 406.989777,644.610840 
	C402.755524,636.494995 407.820465,627.443237 416.948486,626.713562 
	C419.569458,626.504089 422.254639,627.104797 425.317017,626.016479 
	C424.150970,622.712402 422.578827,619.559204 421.934174,616.226624 
	C416.421631,587.728455 418.353668,561.193054 441.538452,539.904907 
	C454.540161,527.966858 466.925934,515.360229 479.763885,503.239838 
	C482.585815,500.575653 482.928650,499.041321 479.939606,496.157349 
	C465.194458,481.930450 450.538544,467.604492 436.127075,453.040466 
	C425.338470,442.137604 420.099731,428.588165 419.770203,413.378815 
	C419.554535,403.423828 418.786102,393.413879 420.625763,383.473999 
	C421.538544,378.542145 423.680847,374.044647 425.226776,369.302185 
	C423.161224,367.621918 420.915039,368.430786 418.857269,368.339447 
	C410.845886,367.983948 405.394348,362.971008 405.437195,355.837097 
	C405.480530,348.624115 410.272369,344.042053 418.663208,343.993866 
	C443.322418,343.852325 467.982941,343.943420 492.642975,343.949127 
	C524.134583,343.956390 555.626160,343.969238 587.117737,343.979675 
	C588.284058,343.980072 589.451355,343.950623 590.616638,343.985809 
	C598.576843,344.225952 603.899841,349.128967 603.711365,356.031281 
	C603.520020,363.038147 598.102356,368.028046 590.517578,368.240784 
	C588.722229,368.291107 586.847778,367.834381 585.120239,368.886108 
	C592.217773,395.152863 593.533630,420.958771 578.923462,445.824036 
M512.093384,475.533844 
	C512.283325,477.576385 511.520874,479.768494 513.124207,482.256378 
	C527.967346,466.428833 544.185303,452.520050 558.070740,436.359039 
	C564.871033,428.444244 567.838684,418.723724 567.756287,408.144775 
	C567.670654,397.154022 567.731079,386.161011 567.844055,375.170166 
	C567.913879,368.376221 568.011475,368.361053 561.009888,368.360687 
	C523.536804,368.358734 486.063751,368.362091 448.590698,368.372528 
	C442.141754,368.374329 441.557007,368.954285 441.514465,375.508545 
	C441.450714,385.326782 441.313873,395.146576 441.421539,404.963379 
	C441.589539,420.287415 446.661133,433.509521 457.997070,444.263824 
	C469.954742,455.607941 481.563995,467.318909 493.376038,478.817657 
	C494.486053,479.898254 495.299866,481.576233 497.537537,481.585663 
	C497.759033,476.270966 498.688995,471.224121 493.918701,466.896515 
	C484.302002,458.172363 475.062714,449.031647 465.685669,440.044067 
	C458.474609,433.132507 453.149872,425.129303 451.076355,415.187225 
	C454.750641,414.035156 554.420715,414.440948 557.457703,415.646759 
	C556.522827,423.313293 552.968811,429.791718 547.645447,435.222961 
	C537.038208,446.045349 526.223572,456.664825 515.462830,467.336090 
	C513.388367,469.393280 511.586029,471.496307 512.093384,475.533844 
M441.631348,591.703003 
	C441.631348,602.726074 441.631348,613.749207 441.631348,625.411621 
	C445.826416,623.735779 447.544891,621.414429 449.540924,619.474365 
	C464.348907,605.081970 479.069885,590.599670 493.927063,576.258423 
	C502.049500,568.418030 507.237762,568.606140 515.246704,576.370483 
	C531.028992,591.670593 546.868591,606.911743 562.709534,622.151245 
	C563.950806,623.345337 565.136597,624.781921 567.717346,625.075256 
	C567.717346,613.397339 567.413757,602.099670 567.796875,590.825378 
	C568.240356,577.772400 563.395691,567.175903 554.258911,558.228455 
	C542.599121,546.810425 530.922729,535.408997 519.313354,523.939941 
	C516.991211,521.645874 514.937561,519.079956 512.760132,516.639404 
	C511.663055,520.231018 511.626373,522.985535 511.670410,525.738708 
	C511.774200,532.230103 512.093140,538.723816 511.984375,545.210876 
	C511.905029,549.941772 508.822083,553.202576 504.787964,553.264160 
	C500.018646,553.337036 497.956909,550.354309 497.447144,546.077148 
	C496.715790,539.940247 496.987183,533.782104 497.331787,527.626892 
	C497.527802,524.126099 497.994232,520.591431 496.871582,516.273193 
	C489.667572,523.606445 483.087891,530.439636 476.355621,537.119080 
	C469.618805,543.803040 462.727692,550.331360 455.907593,556.931458 
	C446.312714,566.216736 441.515289,577.521118 441.631348,591.703003 
z"/>
<path fill="#000000" opacity="1.000000" stroke="none" 
	d="
M418.249878,740.576172 
	C429.704346,745.699280 438.676575,752.974304 442.008728,765.126160 
	C444.818878,775.374207 443.194183,786.007507 443.008270,796.461853 
	C442.940186,800.289795 439.527130,801.775269 435.048370,800.382996 
	C421.688599,796.229858 408.442780,791.746582 395.538879,786.296204 
	C342.315155,763.815674 300.701447,727.493347 269.277222,679.409119 
	C251.640900,652.422607 239.340912,622.972351 232.196304,591.461853 
	C231.759109,589.533630 231.626205,587.504089 231.607895,585.519287 
	C231.550095,579.259460 234.126312,575.393433 239.125916,573.986023 
	C244.680359,572.422546 249.356079,574.498291 252.574036,579.998047 
	C254.880981,583.940857 255.788666,588.389648 256.930786,592.721924 
	C269.127960,638.987244 292.530884,678.625305 327.109192,711.677307 
	C327.951782,712.482666 328.831451,713.251770 329.726990,713.997986 
	C330.092468,714.302490 330.546448,714.500793 331.774658,715.232971 
	C326.750427,704.821777 321.974487,695.215820 317.452545,685.491638 
	C309.165009,667.669739 300.806671,649.875305 292.879791,631.892334 
	C281.520752,606.123047 299.911469,578.682373 327.819580,579.780090 
	C339.539307,580.241089 348.717926,586.062134 355.462708,595.557739 
	C362.866272,605.980774 366.690063,618.203064 372.184204,629.585022 
	C377.324646,640.234192 382.390198,650.930603 387.072998,661.785583 
	C390.140686,668.896606 395.109985,673.235107 402.389893,675.636780 
	C420.417358,681.584106 438.366394,687.770813 456.320831,693.937439 
	C477.434143,701.189148 492.091675,714.735413 497.625427,736.934570 
	C498.749695,741.444763 499.360046,746.064087 499.332947,750.768188 
	C499.237885,767.267090 499.306396,783.766968 499.200745,800.265747 
	C499.157227,807.063049 495.889282,811.638550 490.323395,813.247681 
	C482.618774,815.475159 475.953857,809.992798 475.805603,800.751953 
	C475.567688,785.922974 475.270721,771.071472 475.808014,756.258850 
	C476.654327,732.929810 464.295135,723.019897 448.193237,717.251404 
	C431.735138,711.355469 415.198944,705.596130 398.441772,700.639648 
	C382.107941,695.808289 371.789703,685.558655 365.244934,670.062012 
	C357.148346,650.890991 348.172729,632.083313 339.269470,613.264038 
	C334.096191,602.328857 322.831665,599.926636 315.895691,607.905457 
	C311.611938,612.833252 312.060547,618.286926 314.625031,623.783020 
	C325.189545,646.424438 335.790955,669.048706 346.391144,691.673462 
	C348.157990,695.444580 350.143311,699.120667 351.757355,702.954529 
	C357.171356,715.814514 366.809753,723.739441 379.950653,727.911743 
	C392.644104,731.941895 405.249939,736.247986 418.249878,740.576172 
z"/>
<path fill="#000000" opacity="1.000000" stroke="none" 
	d="
M772.747925,605.584351 
	C759.205017,653.941406 734.119629,695.036255 698.730469,729.816711 
	C663.365234,764.573547 621.012146,787.213135 573.372925,800.273315 
	C567.890381,801.776306 565.846252,800.254456 565.789429,794.631104 
	C565.710327,786.802673 565.304443,778.917114 566.050476,771.153198 
	C567.664246,754.358459 578.272461,744.787964 593.404846,739.547180 
	C605.042664,735.516785 616.758362,731.695129 628.523987,728.053711 
	C642.617126,723.691956 652.160828,714.898865 658.236450,701.294006 
	C669.506958,676.056580 681.574829,651.175293 693.304565,626.142761 
	C694.435242,623.729797 695.528931,621.314148 695.834778,618.604614 
	C696.572876,612.064209 693.363586,606.301819 687.663391,604.079163 
	C682.218872,601.956116 676.088440,603.890076 672.510376,609.544067 
	C666.707031,618.714233 662.831177,628.886230 658.139465,638.632935 
	C652.072021,651.237366 646.218201,663.945190 640.089294,676.519226 
	C634.558960,687.865356 625.718811,695.332214 613.608826,699.303650 
	C594.784424,705.477051 575.999695,711.804382 557.395447,718.606079 
	C541.324890,724.481323 533.655334,736.732361 533.443848,753.636230 
	C533.252075,768.964111 533.375977,784.295715 533.320007,799.625549 
	C533.313354,801.444519 533.325073,803.337219 532.854614,805.066956 
	C531.490234,810.083801 526.284302,814.039185 521.401794,814.042114 
	C516.738281,814.044983 512.838013,810.713196 511.355347,805.095520 
	C510.812866,803.040039 510.709076,800.823303 510.702637,798.679199 
	C510.652649,782.016296 510.661652,765.353149 510.678802,748.690125 
	C510.702362,725.792236 524.654785,704.797791 546.191528,696.672180 
	C565.813904,689.268677 585.658875,682.420349 605.585754,675.875366 
	C613.853149,673.159973 618.981689,668.377991 622.465942,660.413635 
	C630.607788,641.802917 639.430542,623.489075 648.047424,605.087646 
	C652.461060,595.662109 658.580322,587.833618 668.255249,583.115845 
	C690.374084,572.330200 718.233826,588.986084 719.335449,613.689697 
	C719.616150,619.985413 718.555481,625.905762 716.015625,631.663208 
	C704.452637,657.874573 692.258362,683.792053 679.904419,709.636597 
	C679.147034,711.220886 677.912903,712.662842 678.011108,715.058594 
	C689.859009,705.636719 698.859375,694.074951 707.937500,682.627869 
	C729.717102,655.164490 743.677734,623.877625 752.712769,590.215027 
	C753.530762,587.167358 754.446106,584.117065 755.656555,581.209595 
	C758.037598,575.489868 763.269714,572.721375 768.893555,573.924683 
	C774.338623,575.089661 777.550842,579.466370 777.360840,585.805847 
	C777.158569,592.551697 774.447998,598.753784 772.747925,605.584351 
z"/>
<path fill="#000000" opacity="1.000000" stroke="none" 
	d="
M643.006958,299.053772 
	C621.067383,284.691528 597.301697,275.227600 572.884033,267.192841 
	C570.046875,266.259216 567.102295,265.457275 564.495544,264.057800 
	C558.899597,261.053589 556.885986,254.665390 559.239075,248.521423 
	C561.238220,243.301468 566.578064,240.631287 572.820679,242.246872 
	C610.013672,251.872345 644.184204,267.875854 674.638428,291.406769 
	C714.256897,322.018616 744.918274,359.757233 764.621216,406.022675 
	C769.119080,416.584442 773.265686,427.302765 776.379822,438.375427 
	C778.357544,445.407562 775.021851,451.648041 768.328552,453.738617 
	C762.405334,455.588715 756.292847,452.330597 753.856018,445.461914 
	C749.737610,433.853546 745.755615,422.208130 740.788513,410.915894 
	C726.892822,379.325134 706.320068,352.551666 681.614014,328.781006 
	C669.939758,317.548767 657.146729,307.707886 643.006958,299.053772 
z"/>
<path fill="#000000" opacity="1.000000" stroke="none" 
	d="
M340.199097,287.149323 
	C368.699615,266.352631 400.302521,252.911606 433.491364,242.830154 
	C442.002808,240.244736 447.916656,242.820206 450.054535,249.873993 
	C452.332153,257.388885 448.411469,263.524628 439.535126,266.101501 
	C415.256256,273.149933 392.121796,282.916901 370.553162,296.088379 
	C327.094147,322.627808 294.036011,358.867157 271.192078,404.349670 
	C265.132812,416.413696 260.299469,429.024567 256.370758,441.958130 
	C255.640518,444.362183 254.778793,446.687897 253.404282,448.805573 
	C250.193146,453.752899 245.267319,455.566162 240.045944,453.710663 
	C234.764359,451.833740 231.563507,446.816193 232.485260,441.120148 
	C234.227051,430.356598 238.315536,420.289276 242.422195,410.289246 
	C263.091614,359.957520 296.291351,319.517731 340.199097,287.149323 
z"/>
<path fill="#000000" opacity="1.000000" stroke="none" 
	d="
M709.050537,452.874451 
	C697.147827,414.407623 675.790222,382.578400 646.033875,356.257599 
	C621.660339,334.698120 593.376282,320.233459 562.538818,310.430115 
	C560.320679,309.724976 558.070312,309.036743 555.975647,308.043884 
	C549.912170,305.169708 547.357971,299.267578 549.354797,293.131653 
	C551.363831,286.958252 556.756104,283.909576 563.617676,285.528870 
	C580.901672,289.607788 597.230286,296.305817 612.909302,304.514862 
	C659.197449,328.749908 694.436829,364.022858 717.972290,410.755188 
	C725.411011,425.525726 730.725220,441.138702 734.879944,457.134338 
	C737.083679,465.618530 734.605286,471.611267 728.032532,474.156586 
	C722.017273,476.485962 716.583130,474.243805 713.560791,468.071899 
	C711.269043,463.391876 710.568665,458.218628 709.050537,452.874451 
z"/>
<path fill="#000000" opacity="1.000000" stroke="none" 
	d="
M455.392090,287.443298 
	C463.624298,296.089294 461.303314,305.845367 450.175049,309.191467 
	C431.616577,314.771698 413.437958,321.374115 396.804840,331.318024 
	C348.486359,360.204620 315.604584,401.415894 299.266571,455.520203 
	C298.160187,459.184021 297.143280,462.884247 295.828094,466.473541 
	C293.396667,473.109161 287.748352,476.428528 281.907471,474.874176 
	C275.313110,473.119293 272.010529,467.495239 273.549194,460.170227 
	C278.282104,437.638306 287.132080,416.715424 298.680328,396.891632 
	C320.351807,359.690063 349.377777,329.876617 387.252228,308.984589 
	C405.412598,298.967102 424.550171,291.376282 444.524109,285.860382 
	C448.207611,284.843170 451.777039,285.103058 455.392090,287.443298 
z"/>
<path fill="#000000" opacity="1.000000" stroke="none" 
	d="
M480.793335,223.706726 
	C495.292603,214.169647 510.036652,212.812653 524.787537,221.679779 
	C539.345520,230.430939 546.175110,244.042770 545.061096,260.753357 
	C543.932861,277.679352 534.682251,289.685547 518.845459,295.849121 
	C514.120850,297.687866 512.888428,300.154694 513.182922,304.676361 
	C513.474426,309.151398 513.369995,313.664581 513.214600,318.153259 
	C513.011169,324.027924 509.176971,327.715454 503.773834,327.502960 
	C499.029572,327.316376 495.732483,323.549500 495.722046,317.953156 
	C495.712433,312.796509 495.734314,307.618195 496.196381,302.490295 
	C496.480957,299.332581 495.870941,297.865631 492.562988,296.753296 
	C477.220520,291.594269 467.799500,280.710510 464.775055,264.964417 
	C461.572388,248.290527 467.435974,234.603485 480.793335,223.706726 
M509.640717,261.547485 
	C509.754486,252.389450 509.866455,243.231369 509.982819,234.073380 
	C510.029602,230.392395 508.458038,227.607697 504.644806,227.583984 
	C500.713928,227.559555 499.391937,230.596619 499.373962,234.135101 
	C499.331604,242.467300 499.384277,250.799942 499.353058,259.132263 
	C499.342438,261.961578 500.552643,263.930695 503.177032,264.958923 
	C506.080994,266.096680 507.935181,264.631744 509.640717,261.547485 
z"/>
<path fill="#000000" opacity="1.000000" stroke="none" 
	d="
M263.947327,539.978760 
	C246.525558,555.265320 220.958908,552.766174 207.673553,534.747375 
	C195.023788,517.590637 199.794205,491.892151 217.695572,480.758057 
	C233.446915,470.961182 255.680923,474.575317 267.035675,488.778320 
	C279.981079,504.971039 278.865967,525.064087 263.947327,539.978760 
M243.923599,526.696594 
	C251.211746,522.969421 254.663513,517.066589 253.476288,510.360596 
	C252.229080,503.315857 246.840744,497.966156 240.262207,497.241302 
	C233.573502,496.504272 227.398209,499.584961 224.272705,505.218018 
	C221.255646,510.655609 221.773682,517.282715 225.678818,522.096619 
	C230.343414,527.846680 236.286652,529.136108 243.923599,526.696594 
z"/>
<path fill="#000000" opacity="1.000000" stroke="none" 
	d="
M806.831909,503.556854 
	C812.716187,523.641296 797.950928,549.337463 771.285828,550.172241 
	C752.177246,550.770447 735.774292,536.488159 733.030029,517.108948 
	C730.459717,498.958099 743.341064,480.763641 762.097168,476.052612 
	C780.162598,471.515045 798.657654,481.469940 805.421509,499.383362 
	C805.890869,500.626251 806.274658,501.901459 806.831909,503.556854 
M760.525146,500.973419 
	C759.530884,502.086670 758.396790,503.105042 757.566162,504.329315 
	C753.590332,510.189606 754.499390,518.401428 759.609131,523.556396 
	C764.677307,528.669434 773.015686,529.394165 779.355774,525.272827 
	C785.493591,521.282959 788.036560,514.016846 785.304382,507.502228 
	C782.079895,499.813538 771.877869,492.371613 760.525146,500.973419 
z"/>
<path fill="#000000" opacity="1.000000" stroke="none" 
	d="
M626.008667,477.641541 
	C640.900085,474.640869 655.451965,481.277283 662.430603,493.988800 
	C669.259216,506.427124 667.028320,523.201965 657.193481,533.367981 
	C647.692627,543.188721 630.408936,545.992554 617.855835,539.749512 
	C605.216675,533.463623 598.395752,519.641846 600.450867,505.266357 
	C602.594666,490.270447 611.392639,481.588623 626.008667,477.641541 
M618.481384,508.086578 
	C617.974182,510.650085 618.661560,513.075684 619.531372,515.411865 
	C621.791687,521.482544 628.302734,525.389893 634.588013,524.580811 
	C641.442444,523.698364 646.922852,518.455566 647.667419,512.068665 
	C648.454590,505.315338 645.018677,499.553711 638.665283,496.973480 
	C630.335022,493.590393 622.510864,497.649261 618.481384,508.086578 
z"/>
<path fill="#000000" opacity="1.000000" stroke="none" 
	d="
M382.913818,477.688385 
	C399.262970,482.304993 408.802795,494.212982 409.056244,509.844208 
	C409.284698,523.933105 399.704254,537.160156 385.862457,541.351318 
	C372.878632,545.282715 361.055145,543.165771 351.535736,533.029297 
	C341.805054,522.667908 340.101257,510.348236 344.854614,497.336304 
	C349.748016,483.940979 360.537476,478.200409 374.096069,476.768097 
	C376.944641,476.467194 379.725739,477.032501 382.913818,477.688385 
M385.079193,499.396454 
	C383.512238,498.468292 382.025787,497.349762 380.363586,496.646729 
	C374.843079,494.311737 369.732086,495.530579 365.649597,499.574127 
	C361.491638,503.692444 359.821808,508.959381 361.812866,514.706787 
	C363.773651,520.366699 367.963226,524.075867 373.951019,524.429443 
	C379.834045,524.776794 385.127472,522.792053 388.315552,517.218323 
	C392.027557,510.728485 390.121246,505.107635 385.079193,499.396454 
z"/>
<path fill="#000000" opacity="1.000000" stroke="none" 
	d="
M697.565308,522.985291 
	C691.077820,520.292297 687.474548,515.252991 687.991150,510.059631 
	C688.466064,505.286316 692.199524,500.928406 696.958313,499.784088 
	C701.934570,498.587402 706.244263,499.807983 709.452942,503.894257 
	C712.481079,507.750519 713.254456,512.064148 710.824829,516.480774 
	C708.069275,521.489868 703.747620,523.798401 697.565308,522.985291 
z"/>
<path fill="#000000" opacity="1.000000" stroke="none" 
	d="
M301.592590,501.440918 
	C310.511993,496.952637 318.868317,500.650360 320.207703,509.317871 
	C321.113129,515.177185 318.054962,520.566833 312.733276,522.490540 
	C307.549957,524.364197 301.821350,522.406738 298.759094,517.715515 
	C295.221710,512.296509 296.075104,506.870667 301.592590,501.440918 
z"/>
<path fill="#000000" opacity="1.000000" stroke="none" 
	d="
M293.106262,562.171265 
	C292.779449,567.748657 289.725067,570.731628 284.961914,571.908691 
	C281.195801,572.839233 277.612885,572.074463 275.204803,568.719727 
	C272.711731,565.246643 272.095490,561.448120 274.279663,557.531433 
	C276.216248,554.058838 279.222382,552.164978 283.194122,552.249878 
	C286.961700,552.330505 289.833862,554.153625 291.491089,557.607117 
	C292.131165,558.941101 292.547272,560.382507 293.106262,562.171265 
z"/>
<path fill="#000000" opacity="1.000000" stroke="none" 
	d="
M723.028992,572.181885 
	C717.482361,569.114319 715.519043,565.395020 716.638062,560.310974 
	C717.530701,556.255859 719.803711,553.357178 724.116516,552.681458 
	C728.391357,552.011719 732.062378,553.152039 734.432007,557.028198 
	C736.579712,560.541382 737.097473,564.191589 734.534546,567.747314 
	C731.791565,571.552917 728.223145,573.523865 723.028992,572.181885 
z"/>
<path fill="#000000" opacity="1.000000" stroke="none" 
	d="
M361.553619,426.418915 
	C368.751160,426.522003 372.472443,429.162598 373.253052,434.357880 
	C373.966309,439.104797 371.466400,443.515656 367.141388,445.141479 
	C362.112091,447.032104 356.827698,444.803558 354.742950,439.912842 
	C352.386597,434.384979 354.845734,429.270233 361.553619,426.418915 
z"/>
<path fill="#000000" opacity="1.000000" stroke="none" 
	d="
M635.901917,435.231873 
	C637.063965,430.217682 639.716248,426.934143 644.535889,426.209503 
	C648.088379,425.675354 651.110352,427.289581 653.128296,430.246002 
	C655.467651,433.673187 655.980225,437.329681 653.498047,440.987122 
	C650.826782,444.923248 646.945312,446.239410 642.565918,445.069763 
	C637.982239,443.845551 636.048584,440.234924 635.901917,435.231873 
z"/>
<path fill="#000000" opacity="1.000000" stroke="none" 
	d="
M506.334869,664.254639 
	C514.872620,667.216187 515.618103,677.053589 510.016602,681.116211 
	C506.426147,683.720276 502.562439,684.072144 498.930756,681.250549 
	C495.454590,678.549744 494.142120,674.950500 495.567169,670.620300 
	C497.105591,665.945496 500.401215,663.914978 506.334869,664.254639 
z"/>
</svg>