<svg version="1.1" id="Layer_1" xmlns="http://www.w3.org/2000/svg" xmlns:xlink="http://www.w3.org/1999/xlink" x="0px" y="0px"
	 width="100%" viewBox="0 0 1024 1024" enable-background="new 0 0 1024 1024" xml:space="preserve">
<path fill="#040404" opacity="1.000000" stroke="none" 
	d="
M700.000000,1025.000000 
	C466.666656,1025.000000 233.833328,1025.000000 1.000000,1025.000000 
	C1.000000,683.666687 1.000000,342.333344 1.000000,1.000000 
	C342.333344,1.000000 683.666687,1.000000 1025.000000,1.000000 
	C1025.000000,342.333344 1025.000000,683.666687 1025.000000,1025.000000 
	C916.833313,1025.000000 808.666687,1025.000000 700.000000,1025.000000 
M278.102600,571.608215 
	C278.780243,571.620239 279.457855,571.632263 280.931915,571.599487 
	C282.257019,571.637146 283.582092,571.674805 285.282440,572.247803 
	C289.751740,571.968384 291.600616,574.222473 293.115265,578.410461 
	C295.151276,584.039917 297.498627,589.296753 295.054321,595.329590 
	C294.829041,595.885620 295.091736,596.639404 295.019592,597.968262 
	C293.996460,599.979126 292.973328,601.989990 291.364960,604.104126 
	C291.348389,604.776001 291.331818,605.447876 291.340210,606.781982 
	C291.172882,607.188599 291.005554,607.595154 290.267426,608.122253 
	C290.294525,608.791931 290.321625,609.461609 290.375488,611.045410 
	C288.822266,620.370911 291.731506,628.749939 295.639679,637.005737 
	C308.013672,663.144958 320.276184,689.336975 332.204620,715.817749 
	C332.204620,715.817749 331.850891,716.153503 331.202820,715.971802 
	C300.801239,688.629150 278.247925,655.897583 264.220367,617.472656 
	C260.059967,606.076233 257.137299,594.233398 253.214767,582.742798 
	C250.787155,575.631348 245.217712,572.634949 239.378906,574.364380 
	C233.660645,576.058105 231.044327,581.052917 232.059296,588.383484 
	C232.172958,589.204468 232.393753,590.011597 232.581757,590.821289 
	C246.691711,651.583618 278.088165,701.749756 325.144287,742.442017 
	C357.256104,770.210876 394.719086,787.600281 434.888519,799.880493 
	C436.438995,800.354492 438.156158,800.283386 440.089325,801.192993 
	C441.027374,802.932190 442.109528,804.610840 442.871857,806.423950 
	C444.234741,809.665283 449.980072,812.819275 453.161011,811.727234 
	C461.323517,808.925232 469.651031,807.799561 478.836517,809.248230 
	C484.532837,814.469971 488.442017,814.600708 496.204285,809.846375 
	C499.336365,807.697083 502.481049,807.416016 506.135956,808.863831 
	C508.513641,809.805725 511.317688,809.671326 514.530273,810.323730 
	C516.020508,811.321960 517.510681,812.320190 519.241699,813.976990 
	C521.411804,815.245850 523.538940,816.245178 525.462830,812.632812 
	C526.576294,812.064575 527.689697,811.496338 529.760315,810.965027 
	C538.804138,811.969971 547.104187,810.310242 554.614746,804.795166 
	C558.236023,802.136047 562.372009,800.177795 566.767151,798.335571 
	C568.960938,798.828918 571.390625,800.200073 573.313110,799.683655 
	C600.956116,792.257690 627.144470,781.274292 651.437134,766.107300 
	C704.502258,732.976257 741.892151,686.719727 764.629700,628.675293 
	C769.705627,615.717590 772.964417,602.018066 776.585205,588.532593 
	C778.457520,581.559021 774.927429,575.817688 768.968079,574.397644 
	C763.516235,573.098572 757.902344,576.223389 755.799438,582.403320 
	C752.641418,591.684082 750.016113,601.144531 746.992920,610.473083 
	C734.088989,650.290833 711.463867,683.927673 681.608765,712.933105 
	C680.201050,714.300598 678.543213,715.410583 677.001892,716.640503 
	C676.749512,714.871399 677.182312,713.848633 677.655396,712.844910 
	C686.586731,693.893921 695.799927,675.069153 704.357361,655.950867 
	C709.769348,643.859741 714.204407,631.331360 719.812622,618.784790 
	C719.647522,614.680542 719.260193,610.567566 719.419678,606.475952 
	C719.489868,604.676025 720.195923,601.896362 721.432861,601.319946 
	C726.870850,598.785645 729.534302,590.981934 726.256104,585.713623 
	C723.128479,580.687256 724.728821,576.618225 730.497864,574.928772 
	C735.733643,573.395569 737.210388,570.515869 735.657837,564.097778 
	C735.717896,563.066223 735.777954,562.034607 736.588989,560.921509 
	C738.979248,559.851868 741.592896,559.106628 743.713928,557.645935 
	C748.332520,554.465149 752.700134,550.919800 757.968567,547.652344 
	C759.256348,547.990479 760.534729,548.371277 761.833374,548.660461 
	C781.024841,552.932861 799.716248,542.364197 805.745605,523.842957 
	C811.532898,506.065613 802.587708,486.251526 785.252319,478.527557 
	C775.921509,474.370056 766.476196,475.134155 756.651489,477.594666 
	C756.101257,478.048553 755.551025,478.502441 754.561890,479.440460 
	C753.776062,479.805817 752.990173,480.171173 751.801697,479.922272 
	C750.872314,479.893066 749.933655,479.764893 749.014954,479.850433 
	C742.297424,480.475800 734.439209,475.292419 733.718018,468.931702 
	C734.055847,465.543457 735.336548,461.928009 734.583557,458.802551 
	C728.061157,431.730835 717.315308,406.423676 701.383606,383.502625 
	C667.102966,334.182800 620.794678,301.784088 562.761719,285.028839 
	C560.619263,283.728119 558.531860,282.816437 556.434082,286.188660 
	C555.254761,286.783051 554.075439,287.377441 552.258240,287.657288 
	C549.572021,284.088867 546.868469,280.533142 544.228394,276.930969 
	C543.982788,276.595856 544.018188,275.937225 544.128357,275.478058 
	C544.843689,272.497437 546.230896,269.522186 546.191284,266.561310 
	C546.153809,263.762878 548.582947,260.356018 544.786316,257.206940 
	C544.757324,255.844055 544.728333,254.481171 545.274475,252.697647 
	C544.866150,251.465408 544.457825,250.233170 543.665405,248.366470 
	C540.948792,238.673691 536.126221,230.318863 527.922607,224.244629 
	C508.678741,209.995804 481.390289,215.995193 468.811798,237.157349 
	C467.834137,238.089951 466.656281,238.886169 465.912262,239.977982 
	C461.999817,245.719437 462.491699,252.457321 462.164276,258.899719 
	C462.063538,260.881744 463.907440,262.962646 465.193451,265.586609 
	C465.216187,266.029816 465.238922,266.473022 464.642914,267.442444 
	C464.428925,268.562775 464.082642,269.676056 464.022278,270.804596 
	C463.612732,278.463104 458.120605,283.765350 450.540283,284.081177 
	C449.005035,284.145142 447.513092,285.248566 445.291809,286.190735 
	C389.438232,301.659698 343.608429,331.687958 310.289459,379.634277 
	C293.247650,404.157684 280.750092,430.835815 273.089935,460.042694 
	C272.401245,460.785004 271.224976,461.459076 271.109833,462.281647 
	C270.657013,465.516602 268.852783,466.771729 266.040222,468.509827 
	C261.693390,471.196136 258.497040,475.744141 254.135788,479.334778 
	C253.089798,478.842041 252.043808,478.349274 250.897247,477.304474 
	C250.250839,477.242645 249.604416,477.180786 248.116760,477.142059 
	C246.972458,476.921204 245.828995,476.695953 244.683762,476.480164 
	C225.427383,472.851379 207.850647,483.556366 202.518906,502.159180 
	C197.102081,521.058899 206.631409,540.408325 224.977600,547.151917 
	C236.618546,551.430908 247.862305,549.629700 259.248657,544.315002 
	C259.651642,554.578369 268.013428,559.457947 274.336365,566.502563 
	C275.557648,568.006287 276.778931,569.510071 278.102600,571.608215 
M745.500183,369.986237 
	C739.463501,361.414612 733.813782,352.537323 727.324646,344.323120 
	C695.290771,303.773376 655.685669,273.099640 607.434570,254.138168 
	C596.015137,249.650589 584.171326,246.179672 572.380798,242.725632 
	C566.373291,240.965744 561.384277,243.912430 559.478943,249.188278 
	C557.352966,255.075012 559.722595,261.244751 565.336548,263.984314 
	C567.262512,264.924164 569.429260,265.356354 571.432861,266.153870 
	C588.568054,272.974518 606.408813,278.445496 622.690369,286.912659 
	C685.117188,319.377380 728.161743,369.024475 751.010071,435.842804 
	C752.406128,439.925446 753.658875,444.144470 755.717651,447.894012 
	C759.430298,454.655701 767.426331,455.520752 773.104065,450.303986 
	C777.328003,446.423096 777.080994,441.911255 775.518982,436.999237 
	C768.127075,413.753784 758.479431,391.521118 745.500183,369.986237 
M328.384705,296.903442 
	C283.870087,333.393097 251.715225,378.357025 234.713425,433.678497 
	C233.793137,436.672943 233.062134,439.820129 232.897873,442.930756 
	C232.636658,447.878021 235.815460,451.861969 240.573792,453.369995 
	C245.515015,454.935974 249.530807,453.366180 252.386276,449.298431 
	C253.884369,447.164368 254.779938,444.572906 255.754654,442.111603 
	C260.832977,429.288086 264.837219,415.925964 271.054840,403.685730 
	C305.813599,335.258209 360.759247,290.531433 433.522644,267.171600 
	C437.003510,266.054077 440.647675,265.313538 443.956787,263.822571 
	C449.338898,261.397614 451.457855,255.159180 449.300598,249.384415 
	C447.178467,243.703720 442.693939,241.196091 436.636566,242.655457 
	C432.928101,243.548935 429.341553,244.939392 425.681519,246.044662 
	C390.251862,256.743958 357.833862,273.218719 328.384705,296.903442 
z"/>
<path fill="#020101" opacity="1.000000" stroke="none" 
	d="
M254.812790,479.502594 
	C258.497040,475.744141 261.693390,471.196136 266.040222,468.509827 
	C268.852783,466.771729 270.657013,465.516602 271.109833,462.281647 
	C271.224976,461.459076 272.401245,460.785004 273.490601,460.463257 
	C273.302856,469.638275 275.436920,472.943115 282.631866,474.419739 
	C288.613708,475.647400 293.499207,472.140320 295.752899,464.937073 
	C296.646790,462.080078 297.414093,459.183746 298.272064,456.315216 
	C314.282654,402.784302 346.416382,361.573486 393.813141,332.328735 
	C410.868988,321.804901 429.587830,314.798492 448.731812,308.896606 
	C452.156158,307.840912 455.623291,305.549469 458.018188,302.883240 
	C460.893860,299.681732 460.426086,295.418610 458.242981,291.649414 
	C455.513153,286.936188 451.189789,285.451508 446.001190,285.872803 
	C447.513092,285.248566 449.005035,284.145142 450.540283,284.081177 
	C458.120605,283.765350 463.612732,278.463104 464.022278,270.804596 
	C464.082642,269.676056 464.428925,268.562775 465.169128,267.461975 
	C470.233795,283.539246 480.945892,293.274658 497.046478,297.678833 
	C496.739868,304.112061 496.330505,310.409149 496.170074,316.712555 
	C496.009277,323.027679 499.401215,327.104645 504.430206,327.000854 
	C509.467896,326.896851 512.480774,323.264282 512.553345,317.112488 
	C512.596558,313.452271 512.912659,309.744507 512.455750,306.140564 
	C511.689667,300.098633 512.939636,295.947296 519.821716,294.909241 
	C522.012451,294.578827 524.019165,293.028473 526.473755,292.025391 
	C531.561646,290.755280 534.971924,288.140137 536.133911,282.771545 
	C542.091003,275.346771 544.202087,266.907867 545.006775,258.000061 
	C548.582947,260.356018 546.153809,263.762878 546.191284,266.561310 
	C546.230896,269.522186 544.843689,272.497437 544.128357,275.478058 
	C544.018188,275.937225 543.982788,276.595856 544.228394,276.930969 
	C546.868469,280.533142 549.572021,284.088867 552.435913,288.135010 
	C546.449341,297.294403 548.869690,305.132660 558.781494,308.605591 
	C566.938538,311.463684 575.226807,313.999573 583.225891,317.247498 
	C627.945251,335.405273 663.347900,364.696960 688.534912,406.052124 
	C699.333252,423.782227 707.375549,442.616150 712.243896,462.878021 
	C715.275879,475.497345 724.272400,478.061707 733.472046,469.558136 
	C734.439209,475.292419 742.297424,480.475800 749.014954,479.850433 
	C749.933655,479.764893 750.872314,479.893066 751.767273,480.449463 
	C749.338684,482.760162 746.747742,484.333405 744.581909,486.360809 
	C728.932068,501.010101 726.959106,533.664734 757.170349,547.523438 
	C752.700134,550.919800 748.332520,554.465149 743.713928,557.645935 
	C741.592896,559.106628 738.979248,559.851868 735.995178,560.695801 
	C735.236267,560.001526 735.115112,559.511597 734.899353,559.067566 
	C732.504944,554.139526 728.405884,551.804077 723.684204,553.082397 
	C719.351501,554.255371 717.122681,557.477600 716.926819,561.866028 
	C716.741882,566.008423 717.702209,570.045166 721.943115,571.727173 
	C726.561768,573.558899 731.559814,571.368896 734.398315,566.982605 
	C734.842041,566.296875 735.236084,565.579041 735.653137,564.876038 
	C737.210388,570.515869 735.733643,573.395569 730.497864,574.928772 
	C724.728821,576.618225 723.128479,580.687256 726.256104,585.713623 
	C729.534302,590.981934 726.870850,598.785645 721.432861,601.319946 
	C720.195923,601.896362 719.489868,604.676025 719.419678,606.475952 
	C719.260193,610.567566 719.647522,614.680542 719.358398,618.458130 
	C718.874146,616.799438 718.899414,615.463440 718.805664,614.135864 
	C717.260803,592.239807 696.126892,576.023132 675.436218,581.114075 
	C662.701477,584.247559 654.490051,592.908020 649.078613,604.429443 
	C640.240112,623.247375 631.292419,642.020996 622.900818,661.038391 
	C619.488708,668.771118 614.510986,673.568481 606.427429,676.226685 
	C586.677063,682.721375 567.028198,689.555786 547.517578,696.739990 
	C525.452393,704.864746 511.209137,725.703003 511.118652,749.122925 
	C511.055542,765.449280 510.918823,781.779541 511.225616,798.100281 
	C511.300598,802.088806 512.985840,806.046997 513.930725,810.019165 
	C511.317688,809.671326 508.513641,809.805725 506.135956,808.863831 
	C502.481049,807.416016 499.336365,807.697083 495.991211,809.487183 
	C496.685547,806.350098 498.328552,803.585815 498.379974,800.792236 
	C498.692474,783.815063 498.919464,766.826782 498.645020,749.850769 
	C498.282654,727.434631 487.663239,710.675232 468.364502,699.880310 
	C460.615692,695.545898 451.818726,693.004456 443.363007,690.033386 
	C430.185028,685.403015 416.956329,680.893188 403.622620,676.738403 
	C395.290833,674.142151 389.366760,669.491638 386.088654,661.215210 
	C383.461426,654.582214 380.107422,648.238892 377.128754,641.742798 
	C371.450073,629.358276 365.950287,616.889526 360.111023,604.581543 
	C354.688080,593.151062 346.729767,584.026428 333.846619,581.229919 
	C317.470642,577.675232 304.433502,583.267761 295.127838,597.301331 
	C295.091736,596.639404 294.829041,595.885620 295.054321,595.329590 
	C297.498627,589.296753 295.151276,584.039917 293.115265,578.410461 
	C291.600616,574.222473 289.751740,571.968384 285.358948,571.770691 
	C291.528381,568.578674 293.524597,564.997375 291.866058,559.756836 
	C290.254639,554.665161 285.630737,551.888977 280.674255,553.037231 
	C275.225037,554.299683 273.255951,558.077454 273.917511,566.000122 
	C268.013428,559.457947 259.651642,554.578369 259.126526,543.786377 
	C278.812164,528.864746 281.052917,503.189972 263.833008,486.300293 
	C261.167786,483.686218 257.836212,481.751495 254.812790,479.502594 
M532.979675,507.510803 
	C530.226868,505.121155 527.474060,502.731537 523.309692,499.116547 
	C526.129761,497.183014 528.136841,496.185059 529.668457,494.697601 
	C543.533020,481.232452 557.332764,467.700348 571.113464,454.149170 
	C579.541138,445.861816 585.320068,435.929321 587.248291,424.300964 
	C590.207214,406.457275 591.396851,388.557037 584.533447,371.140717 
	C584.138916,370.139587 584.013794,369.032227 583.654602,367.515289 
	C586.213562,367.515289 588.350342,367.539917 590.486450,367.510864 
	C597.949341,367.409363 603.219055,362.468353 603.168640,355.641602 
	C603.120605,349.150116 598.288513,344.804688 590.849182,344.795380 
	C549.020081,344.742950 507.191010,344.732147 465.361908,344.713409 
	C449.530243,344.706329 433.698517,344.736694 417.866913,344.705597 
	C413.164520,344.696350 409.384338,346.194550 407.191193,350.635315 
	C403.372223,358.368073 408.155182,366.630585 417.254211,367.694611 
	C420.287201,368.049255 423.396637,367.750580 427.277832,367.750580 
	C420.558105,378.789246 419.628632,390.140381 419.937805,401.742096 
	C420.035431,405.406586 419.902191,409.079834 420.080780,412.739044 
	C420.848267,428.462372 426.023712,442.404907 437.350983,453.624237 
	C451.675415,467.812317 466.076355,481.926178 480.642822,495.864532 
	C483.758392,498.845764 483.525848,500.467407 480.509155,503.311646 
	C468.025543,515.081482 455.746002,527.069458 443.490356,539.078186 
	C439.691498,542.800476 435.909668,546.609253 432.628387,550.778442 
	C419.610046,567.320007 418.561737,586.643555 420.734558,606.392090 
	C421.496887,613.320618 423.965485,620.061462 425.697937,627.061707 
	C424.510834,627.061707 423.183960,627.053589 421.857208,627.063232 
	C417.164703,627.097168 412.408325,626.982178 408.981812,631.048706 
	C405.795563,634.830078 404.980682,639.057007 407.049377,643.617004 
	C409.197449,648.351868 413.027802,650.610901 418.182312,650.621216 
	C435.513702,650.655945 452.845154,650.669800 470.176575,650.688965 
	C510.004761,650.732971 549.832947,650.788086 589.661133,650.807739 
	C597.562561,650.811646 603.107849,645.889343 603.070251,639.069519 
	C603.031799,632.095703 597.803040,627.396729 589.770935,627.162292 
	C587.682922,627.101318 585.591614,627.153076 582.838928,627.153076 
	C589.011841,615.542969 588.990051,603.617493 589.317078,591.572327 
	C589.853699,571.807678 582.893433,555.544067 568.733398,542.030579 
	C556.920166,530.756775 545.231506,519.352417 532.979675,507.510803 
M650.880127,482.554718 
	C637.085754,474.470795 620.738464,476.142395 609.952271,486.739807 
	C599.801636,496.712799 597.574219,513.498108 604.690063,526.394165 
	C611.080139,537.974792 623.223328,543.898010 637.104431,542.205139 
	C650.782410,540.537109 661.742188,531.117798 664.813416,518.390747 
	C668.197021,504.369690 663.343079,491.471771 650.880127,482.554718 
M398.763275,486.735138 
	C397.774475,485.847137 396.860229,484.854797 395.785492,484.087158 
	C384.273773,475.864624 372.002502,475.016327 359.627228,481.471832 
	C347.239838,487.933716 342.184387,499.117371 343.073547,512.582458 
	C343.961304,526.025635 351.227478,535.593872 363.831238,540.568542 
	C377.386200,545.918640 393.865662,540.656067 402.452393,528.624390 
	C411.257843,516.286194 409.988342,499.903900 398.763275,486.735138 
M691.291809,503.798004 
	C687.715149,508.259308 687.646057,512.947021 690.718323,517.604126 
	C693.339905,521.578064 697.236694,523.159302 701.929321,522.469177 
	C706.942627,521.731812 710.625977,518.051697 711.441284,512.927551 
	C712.232727,507.953857 710.105957,504.154114 706.029602,501.525238 
	C701.696472,498.730774 696.806396,499.445160 691.291809,503.798004 
M310.153473,499.875488 
	C301.111511,499.878662 295.251251,506.444244 297.540802,514.006165 
	C299.189636,519.452026 304.249451,523.028137 309.573914,522.510925 
	C315.136841,521.970581 319.174133,518.112610 319.886719,512.656433 
	C320.623291,507.016541 317.303589,502.295837 310.153473,499.875488 
M372.998322,435.577484 
	C371.551849,429.356812 368.668945,426.741638 363.365021,426.838928 
	C358.838776,426.921936 355.507843,429.796600 354.743591,434.279388 
	C353.868958,439.409546 356.704132,444.003357 361.361786,445.002899 
	C367.211823,446.258331 371.218140,443.282837 372.998322,435.577484 
M650.712341,428.478851 
	C644.921021,425.592407 640.748718,426.496002 637.876160,431.258698 
	C635.353333,435.441650 636.461792,440.923828 640.377625,443.630646 
	C644.217102,446.284760 649.686035,445.167267 652.707336,441.111237 
	C655.379761,437.523590 654.908508,433.445435 650.712341,428.478851 
M502.220520,682.244263 
	C503.209473,682.315674 504.217102,682.545654 505.184265,682.431885 
	C510.196198,681.842285 513.569946,677.607422 513.015564,672.713562 
	C512.438049,667.614868 507.853271,664.049011 502.824432,664.787415 
	C498.108887,665.479797 494.493988,670.214355 495.980957,675.051331 
	C496.796722,677.705078 499.592987,679.750000 502.220520,682.244263 
z"/>
<path fill="#F0E6E3" opacity="1.000000" stroke="none" 
	d="
M295.073730,597.634766 
	C304.433502,583.267761 317.470642,577.675232 333.846619,581.229919 
	C346.729767,584.026428 354.688080,593.151062 360.111023,604.581543 
	C365.950287,616.889526 371.450073,629.358276 377.128754,641.742798 
	C380.107422,648.238892 383.461426,654.582214 386.088654,661.215210 
	C389.366760,669.491638 395.290833,674.142151 403.622620,676.738403 
	C416.956329,680.893188 430.185028,685.403015 443.363007,690.033386 
	C451.818726,693.004456 460.615692,695.545898 468.364502,699.880310 
	C487.663239,710.675232 498.282654,727.434631 498.645020,749.850769 
	C498.919464,766.826782 498.692474,783.815063 498.379974,800.792236 
	C498.328552,803.585815 496.685547,806.350098 495.610474,809.465820 
	C488.442017,814.600708 484.532837,814.469971 478.435669,808.704102 
	C477.425110,804.590637 476.333160,801.027283 476.289062,797.451050 
	C476.096191,781.814148 476.300842,766.172852 476.177338,750.534546 
	C476.083496,738.651245 470.795929,729.339600 460.893097,722.992249 
	C456.332092,720.068848 451.250732,717.751526 446.127472,715.949341 
	C430.456390,710.436768 414.687988,705.191650 398.883240,700.071472 
	C389.223022,696.941895 380.322235,692.769592 373.654205,684.316589 
	C371.187134,679.770447 368.575928,675.688538 366.550354,671.334229 
	C357.642578,652.185730 349.008606,632.909241 340.000916,613.808533 
	C338.499512,610.624939 336.026489,607.620300 333.318542,605.348083 
	C328.883331,601.626587 322.923889,601.746216 318.463379,604.819397 
	C313.214172,608.435852 310.889465,613.699463 312.603912,619.509460 
	C313.672333,623.130005 315.549042,626.512085 317.079285,630.362183 
	C327.916046,653.677795 339.269745,676.400818 349.375122,699.666077 
	C356.462158,715.982300 368.034760,725.596069 384.914062,730.210938 
	C396.588928,733.402771 408.230469,737.116150 419.343170,741.868042 
	C434.694397,748.432495 443.637146,759.980042 442.801697,777.628479 
	C442.550323,782.938782 443.065033,788.295410 442.636230,793.582764 
	C442.445190,795.938538 440.787598,798.175415 439.795654,800.466309 
	C438.156158,800.283386 436.438995,800.354492 434.888519,799.880493 
	C394.719086,787.600281 357.256104,770.210876 325.144287,742.442017 
	C278.088165,701.749756 246.691711,651.583618 232.581757,590.821289 
	C232.393753,590.011597 232.172958,589.204468 232.059296,588.383484 
	C231.044327,581.052917 233.660645,576.058105 239.378906,574.364380 
	C245.217712,572.634949 250.787155,575.631348 253.214767,582.742798 
	C257.137299,594.233398 260.059967,606.076233 264.220367,617.472656 
	C278.247925,655.897583 300.801239,688.629150 331.630890,716.348267 
	C332.329468,716.737915 332.599945,716.751160 332.870453,716.764343 
	C332.774231,716.345764 332.678009,715.927124 332.581787,715.508545 
	C320.276184,689.336975 308.013672,663.144958 295.639679,637.005737 
	C291.731506,628.749939 288.822266,620.370911 290.546936,610.369995 
	C290.758362,609.130249 290.798309,608.566040 290.838257,608.001770 
	C291.005554,607.595154 291.172882,607.188599 291.521484,606.237427 
	C291.785248,605.128845 291.867706,604.564819 291.950195,604.000854 
	C292.973328,601.989990 293.996460,599.979126 295.073730,597.634766 
z"/>
<path fill="#F1E6E2" opacity="1.000000" stroke="none" 
	d="
M514.230469,810.171448 
	C512.985840,806.046997 511.300598,802.088806 511.225616,798.100281 
	C510.918823,781.779541 511.055542,765.449280 511.118652,749.122925 
	C511.209137,725.703003 525.452393,704.864746 547.517578,696.739990 
	C567.028198,689.555786 586.677063,682.721375 606.427429,676.226685 
	C614.510986,673.568481 619.488708,668.771118 622.900818,661.038391 
	C631.292419,642.020996 640.240112,623.247375 649.078613,604.429443 
	C654.490051,592.908020 662.701477,584.247559 675.436218,581.114075 
	C696.126892,576.023132 717.260803,592.239807 718.805664,614.135864 
	C718.899414,615.463440 718.874146,616.799438 718.990967,618.565308 
	C714.204407,631.331360 709.769348,643.859741 704.357361,655.950867 
	C695.799927,675.069153 686.586731,693.893921 677.655396,712.844910 
	C677.182312,713.848633 676.749512,714.871399 677.001892,716.640503 
	C678.543213,715.410583 680.201050,714.300598 681.608765,712.933105 
	C711.463867,683.927673 734.088989,650.290833 746.992920,610.473083 
	C750.016113,601.144531 752.641418,591.684082 755.799438,582.403320 
	C757.902344,576.223389 763.516235,573.098572 768.968079,574.397644 
	C774.927429,575.817688 778.457520,581.559021 776.585205,588.532593 
	C772.964417,602.018066 769.705627,615.717590 764.629700,628.675293 
	C741.892151,686.719727 704.502258,732.976257 651.437134,766.107300 
	C627.144470,781.274292 600.956116,792.257690 573.313110,799.683655 
	C571.390625,800.200073 568.960938,798.828918 566.536926,797.656738 
	C566.383850,790.648499 566.509521,784.319214 566.529114,777.989624 
	C566.590210,758.210205 574.682007,746.584167 593.367615,740.098572 
	C604.668640,736.176025 616.117798,732.682007 627.477478,728.926086 
	C638.587891,725.252625 648.951294,720.409790 654.594604,709.274597 
	C658.195129,702.170288 661.439514,694.885559 665.017273,687.453735 
	C668.470154,680.150757 671.749329,673.075745 675.295654,665.769470 
	C678.720764,658.362427 681.878845,651.186584 685.288574,643.797974 
	C686.067383,642.157471 686.594604,640.729797 687.378418,639.088745 
	C688.122559,637.646423 688.610046,636.417480 689.376587,634.970093 
	C691.756042,630.244080 694.254883,625.873840 695.864014,621.197388 
	C698.328979,614.033875 694.882080,606.571045 688.387939,603.716980 
	C682.264465,601.025818 675.020386,603.342896 671.436157,610.054016 
	C666.836487,618.666443 662.944519,627.656799 658.479004,636.727417 
	C656.895447,639.978455 655.580627,642.986511 654.056274,646.295776 
	C651.116455,652.447815 648.386230,658.298523 645.394165,664.409607 
	C644.101685,667.117004 643.071045,669.564087 641.775146,672.236694 
	C637.851685,680.892578 632.574951,688.074158 625.116577,693.651855 
	C625.049133,693.678711 624.993286,693.812744 624.664917,693.873840 
	C623.226868,694.629700 622.117126,695.324463 620.637939,696.048096 
	C617.312378,697.175720 614.376160,698.331726 611.396973,699.363770 
	C592.734192,705.828796 573.869324,711.767029 555.453552,718.870605 
	C540.673889,724.571594 533.249573,736.271240 533.089600,752.221130 
	C532.934570,767.680115 533.263000,783.150391 532.749939,798.594849 
	C532.612061,802.745056 530.181335,806.819092 528.803162,810.928101 
	C527.689697,811.496338 526.576294,812.064575 524.800903,812.841919 
	C522.426270,813.140198 520.713623,813.229309 519.000916,813.318481 
	C517.510681,812.320190 516.020508,811.321960 514.230469,810.171448 
z"/>
<path fill="#020202" opacity="1.000000" stroke="none" 
	d="
M654.265808,645.994507 
	C655.580627,642.986511 656.895447,639.978455 658.630127,637.076538 
	C660.458374,640.377808 662.218994,640.686890 664.452271,637.899475 
	C667.456848,634.149292 670.339844,630.045349 675.940308,634.323181 
	C676.518311,634.764648 677.803955,634.192078 678.749146,634.259644 
	C680.386536,634.376587 682.014465,634.626282 683.530579,634.806580 
	C683.731995,638.451538 678.367249,642.294189 685.036865,644.010803 
	C681.878845,651.186584 678.720764,658.362427 674.940063,665.810913 
	C663.597046,669.185791 665.570618,680.484009 659.097351,687.681763 
	C662.022217,687.681763 663.432922,687.681763 664.843628,687.681763 
	C661.439514,694.885559 658.195129,702.170288 654.594604,709.274597 
	C648.951294,720.409790 638.587891,725.252625 627.477478,728.926086 
	C616.117798,732.682007 604.668640,736.176025 593.367615,740.098572 
	C574.682007,746.584167 566.590210,758.210205 566.529114,777.989624 
	C566.509521,784.319214 566.383850,790.648499 566.290833,797.440063 
	C562.372009,800.177795 558.236023,802.136047 554.614746,804.795166 
	C547.104187,810.310242 538.804138,811.969971 529.281738,810.946533 
	C530.181335,806.819092 532.612061,802.745056 532.749939,798.594849 
	C533.263000,783.150391 532.934570,767.680115 533.089600,752.221130 
	C533.249573,736.271240 540.673889,724.571594 555.453552,718.870605 
	C573.869324,711.767029 592.734192,705.828796 611.396973,699.363770 
	C614.376160,698.331726 617.312378,697.175720 620.851868,696.274048 
	C622.621277,695.585022 623.807251,694.698853 624.993286,693.812744 
	C624.993286,693.812744 625.049133,693.678711 625.527954,693.741943 
	C627.589966,693.117126 629.374390,692.694275 630.710022,691.680237 
	C632.807800,690.087585 634.904114,688.319885 636.459412,686.224243 
	C639.137268,682.616211 641.489014,678.750427 643.716492,674.843872 
	C643.985718,674.371704 642.638489,672.977844 642.040405,672.011108 
	C643.071045,669.564087 644.101685,667.117004 645.546143,664.782166 
	C648.456360,668.520447 649.874939,666.508728 651.040710,663.863281 
	C652.852844,659.751038 654.535645,655.581909 656.345581,651.468750 
	C657.159119,649.619812 658.146973,647.847595 659.391296,645.373169 
	C657.074829,645.653992 655.670288,645.824219 654.265808,645.994507 
z"/>
<path fill="#F0E5E2" opacity="1.000000" stroke="none" 
	d="
M745.696838,370.291138 
	C758.479431,391.521118 768.127075,413.753784 775.518982,436.999237 
	C777.080994,441.911255 777.328003,446.423096 773.104065,450.303986 
	C767.426331,455.520752 759.430298,454.655701 755.717651,447.894012 
	C753.658875,444.144470 752.406128,439.925446 751.010071,435.842804 
	C728.161743,369.024475 685.117188,319.377380 622.690369,286.912659 
	C606.408813,278.445496 588.568054,272.974518 571.432861,266.153870 
	C569.429260,265.356354 567.262512,264.924164 565.336548,263.984314 
	C559.722595,261.244751 557.352966,255.075012 559.478943,249.188278 
	C561.384277,243.912430 566.373291,240.965744 572.380798,242.725632 
	C584.171326,246.179672 596.015137,249.650589 607.434570,254.138168 
	C655.685669,273.099640 695.290771,303.773376 727.324646,344.323120 
	C733.813782,352.537323 739.463501,361.414612 745.696838,370.291138 
z"/>
<path fill="#F0E5E2" opacity="1.000000" stroke="none" 
	d="
M328.660126,296.677399 
	C357.833862,273.218719 390.251862,256.743958 425.681519,246.044662 
	C429.341553,244.939392 432.928101,243.548935 436.636566,242.655457 
	C442.693939,241.196091 447.178467,243.703720 449.300598,249.384415 
	C451.457855,255.159180 449.338898,261.397614 443.956787,263.822571 
	C440.647675,265.313538 437.003510,266.054077 433.522644,267.171600 
	C360.759247,290.531433 305.813599,335.258209 271.054840,403.685730 
	C264.837219,415.925964 260.832977,429.288086 255.754654,442.111603 
	C254.779938,444.572906 253.884369,447.164368 252.386276,449.298431 
	C249.530807,453.366180 245.515015,454.935974 240.573792,453.369995 
	C235.815460,451.861969 232.636658,447.878021 232.897873,442.930756 
	C233.062134,439.820129 233.793137,436.672943 234.713425,433.678497 
	C251.715225,378.357025 283.870087,333.393097 328.660126,296.677399 
z"/>
<path fill="#020202" opacity="1.000000" stroke="none" 
	d="
M373.779633,684.655457 
	C380.322235,692.769592 389.223022,696.941895 398.883240,700.071472 
	C414.687988,705.191650 430.456390,710.436768 446.127472,715.949341 
	C451.250732,717.751526 456.332092,720.068848 460.893097,722.992249 
	C470.795929,729.339600 476.083496,738.651245 476.177338,750.534546 
	C476.300842,766.172852 476.096191,781.814148 476.289062,797.451050 
	C476.333160,801.027283 477.425110,804.590637 478.138184,808.535767 
	C469.651031,807.799561 461.323517,808.925232 453.161011,811.727234 
	C449.980072,812.819275 444.234741,809.665283 442.871857,806.423950 
	C442.109528,804.610840 441.027374,802.932190 439.942474,800.829590 
	C440.787598,798.175415 442.445190,795.938538 442.636230,793.582764 
	C443.065033,788.295410 442.550323,782.938782 442.801697,777.628479 
	C443.637146,759.980042 434.694397,748.432495 419.343170,741.868042 
	C408.230469,737.116150 396.588928,733.402771 384.914062,730.210938 
	C368.034760,725.596069 356.462158,715.982300 349.375122,699.666077 
	C339.269745,676.400818 327.916046,653.677795 317.440491,630.375610 
	C319.848846,632.621399 322.183258,635.046570 323.919800,637.842896 
	C327.610077,643.785278 330.826172,650.025391 334.599823,655.910706 
	C335.676117,657.589294 337.963257,659.456116 339.760529,659.524719 
	C344.894104,659.720703 345.760071,663.068970 346.910370,666.904907 
	C348.373199,671.783081 351.857330,673.504211 356.330505,671.792664 
	C358.929260,670.798279 360.139984,671.173645 361.081177,674.019653 
	C362.945709,679.657776 369.287598,684.697693 373.779633,684.655457 
z"/>
<path fill="#F0E5E2" opacity="1.000000" stroke="none" 
	d="
M733.595032,469.244934 
	C724.272400,478.061707 715.275879,475.497345 712.243896,462.878021 
	C707.375549,442.616150 699.333252,423.782227 688.534912,406.052124 
	C663.347900,364.696960 627.945251,335.405273 583.225891,317.247498 
	C575.226807,313.999573 566.938538,311.463684 558.781494,308.605591 
	C548.869690,305.132660 546.449341,297.294403 552.754822,288.292297 
	C554.075439,287.377441 555.254761,286.783051 557.146912,286.038452 
	C559.572754,285.820251 561.285767,285.752228 562.998779,285.684204 
	C620.794678,301.784088 667.102966,334.182800 701.383606,383.502625 
	C717.315308,406.423676 728.061157,431.730835 734.583557,458.802551 
	C735.336548,461.928009 734.055847,465.543457 733.595032,469.244934 
z"/>
<path fill="#F0E5E2" opacity="1.000000" stroke="none" 
	d="
M445.646484,286.031769 
	C451.189789,285.451508 455.513153,286.936188 458.242981,291.649414 
	C460.426086,295.418610 460.893860,299.681732 458.018188,302.883240 
	C455.623291,305.549469 452.156158,307.840912 448.731812,308.896606 
	C429.587830,314.798492 410.868988,321.804901 393.813141,332.328735 
	C346.416382,361.573486 314.282654,402.784302 298.272064,456.315216 
	C297.414093,459.183746 296.646790,462.080078 295.752899,464.937073 
	C293.499207,472.140320 288.613708,475.647400 282.631866,474.419739 
	C275.436920,472.943115 273.302856,469.638275 273.865936,460.442474 
	C280.750092,430.835815 293.247650,404.157684 310.289459,379.634277 
	C343.608429,331.687958 389.438232,301.659698 445.646484,286.031769 
z"/>
<path fill="#F1E6E3" opacity="1.000000" stroke="none" 
	d="
M526.110107,292.036255 
	C524.019165,293.028473 522.012451,294.578827 519.821716,294.909241 
	C512.939636,295.947296 511.689667,300.098633 512.455750,306.140564 
	C512.912659,309.744507 512.596558,313.452271 512.553345,317.112488 
	C512.480774,323.264282 509.467896,326.896851 504.430206,327.000854 
	C499.401215,327.104645 496.009277,323.027679 496.170074,316.712555 
	C496.330505,310.409149 496.739868,304.112061 497.046478,297.678833 
	C480.945892,293.274658 470.233795,283.539246 465.478516,267.198883 
	C465.238922,266.473022 465.216187,266.029816 465.058563,264.876892 
	C463.394287,254.638718 465.323792,245.709656 469.598816,237.187027 
	C481.390289,215.995193 508.678741,209.995804 527.922607,224.244629 
	C536.126221,230.318863 540.948792,238.673691 543.813965,249.035416 
	C544.208069,250.842346 544.453674,251.980316 544.699341,253.118286 
	C544.728333,254.481171 544.757324,255.844055 544.896545,257.603516 
	C544.202087,266.907867 542.091003,275.346771 535.837036,282.917419 
	C532.330261,286.274658 529.220154,289.155457 526.110107,292.036255 
M510.793793,253.389954 
	C510.786896,246.575165 510.935242,239.755249 510.709442,232.947708 
	C510.591492,229.392365 508.629974,227.008484 504.733978,226.967987 
	C501.059113,226.929779 499.056671,229.100189 498.991028,232.496826 
	C498.811127,241.801163 498.637909,251.129486 499.191467,260.404785 
	C499.307434,262.348022 502.261871,265.085144 504.419373,265.720215 
	C507.754303,266.701874 510.026794,264.147217 510.621216,260.814972 
	C510.995544,258.716400 510.758484,256.508789 510.793793,253.389954 
z"/>
<path fill="#F0E6E2" opacity="1.000000" stroke="none" 
	d="
M757.569458,547.587891 
	C726.959106,533.664734 728.932068,501.010101 744.581909,486.360809 
	C746.747742,484.333405 749.338684,482.760162 751.968567,480.756592 
	C752.990173,480.171173 753.776062,479.805817 755.074219,479.203247 
	C756.059204,478.648407 756.531860,478.330719 757.004517,478.013062 
	C766.476196,475.134155 775.921509,474.370056 785.252319,478.527557 
	C802.587708,486.251526 811.532898,506.065613 805.745605,523.842957 
	C799.716248,542.364197 781.024841,552.932861 761.833374,548.660461 
	C760.534729,548.371277 759.256348,547.990479 757.569458,547.587891 
M770.424500,528.798706 
	C772.669800,528.235413 775.027466,527.941650 777.140686,527.061218 
	C785.551208,523.557068 789.146057,514.460999 785.422974,506.518921 
	C781.358521,497.848419 772.056702,494.165375 763.955017,498.018646 
	C757.585571,501.048035 753.587952,507.747406 754.368774,514.083496 
	C755.320007,521.802429 760.734802,527.019897 770.424500,528.798706 
z"/>
<path fill="#F0E5E2" opacity="1.000000" stroke="none" 
	d="
M254.474289,479.418701 
	C257.836212,481.751495 261.167786,483.686218 263.833008,486.300293 
	C281.052917,503.189972 278.812164,528.864746 258.807068,543.541992 
	C247.862305,549.629700 236.618546,551.430908 224.977600,547.151917 
	C206.631409,540.408325 197.102081,521.058899 202.518906,502.159180 
	C207.850647,483.556366 225.427383,472.851379 244.683762,476.480164 
	C245.828995,476.695953 246.972458,476.921204 248.726334,477.346619 
	C249.889877,477.652954 250.443848,477.754761 250.997833,477.856506 
	C252.043808,478.349274 253.089798,478.842041 254.474289,479.418701 
M228.183868,525.462463 
	C237.986008,533.124817 252.766800,525.988159 254.086823,514.978455 
	C255.020737,507.189117 250.717728,499.878387 243.301224,497.231934 
	C236.430237,494.780121 228.285431,497.764038 224.178482,504.237762 
	C220.008972,510.809967 221.308716,518.657410 228.183868,525.462463 
z"/>
<path fill="#ECE2DE" opacity="1.000000" stroke="none" 
	d="
M735.655518,564.486938 
	C735.236084,565.579041 734.842041,566.296875 734.398315,566.982605 
	C731.559814,571.368896 726.561768,573.558899 721.943115,571.727173 
	C717.702209,570.045166 716.741882,566.008423 716.926819,561.866028 
	C717.122681,557.477600 719.351501,554.255371 723.684204,553.082397 
	C728.405884,551.804077 732.504944,554.139526 734.899353,559.067566 
	C735.115112,559.511597 735.236267,560.001526 735.619690,560.736572 
	C735.777954,562.034607 735.717896,563.066223 735.655518,564.486938 
z"/>
<path fill="#EEE4E1" opacity="1.000000" stroke="none" 
	d="
M274.126953,566.251343 
	C273.255951,558.077454 275.225037,554.299683 280.674255,553.037231 
	C285.630737,551.888977 290.254639,554.665161 291.866058,559.756836 
	C293.524597,564.997375 291.528381,568.578674 285.171326,571.503052 
	C283.582092,571.674805 282.257019,571.637146 280.319519,571.425415 
	C279.138123,571.172119 278.569183,571.092957 278.000214,571.013794 
	C276.778931,569.510071 275.557648,568.006287 274.126953,566.251343 
z"/>
<path fill="#020101" opacity="1.000000" stroke="none" 
	d="
M469.205322,237.172180 
	C465.323792,245.709656 463.394287,254.638718 464.892273,264.582703 
	C463.907440,262.962646 462.063538,260.881744 462.164276,258.899719 
	C462.491699,252.457321 461.999817,245.719437 465.912262,239.977982 
	C466.656281,238.886169 467.834137,238.089951 469.205322,237.172180 
z"/>
<path fill="#020101" opacity="1.000000" stroke="none" 
	d="
M562.880249,285.356506 
	C561.285767,285.752228 559.572754,285.820251 557.430786,285.866058 
	C558.531860,282.816437 560.619263,283.728119 562.880249,285.356506 
z"/>
<path fill="#020101" opacity="1.000000" stroke="none" 
	d="
M519.121338,813.647705 
	C520.713623,813.229309 522.426270,813.140198 524.568970,813.055176 
	C523.538940,816.245178 521.411804,815.245850 519.121338,813.647705 
z"/>
<path fill="#020101" opacity="1.000000" stroke="none" 
	d="
M544.986877,252.907959 
	C544.453674,251.980316 544.208069,250.842346 544.005981,249.352631 
	C544.457825,250.233170 544.866150,251.465408 544.986877,252.907959 
z"/>
<path fill="#020101" opacity="1.000000" stroke="none" 
	d="
M290.552856,608.062012 
	C290.798309,608.566040 290.758362,609.130249 290.533569,609.912903 
	C290.321625,609.461609 290.294525,608.791931 290.552856,608.062012 
z"/>
<path fill="#020101" opacity="1.000000" stroke="none" 
	d="
M291.657562,604.052490 
	C291.867706,604.564819 291.785248,605.128845 291.509033,605.906250 
	C291.331818,605.447876 291.348389,604.776001 291.657562,604.052490 
z"/>
<path fill="#020101" opacity="1.000000" stroke="none" 
	d="
M250.947540,477.580505 
	C250.443848,477.754761 249.889877,477.652954 249.146957,477.335083 
	C249.604416,477.180786 250.250839,477.242645 250.947540,477.580505 
z"/>
<path fill="#020101" opacity="1.000000" stroke="none" 
	d="
M756.828003,477.803864 
	C756.531860,478.330719 756.059204,478.648407 755.293701,478.961182 
	C755.551025,478.502441 756.101257,478.048553 756.828003,477.803864 
z"/>
<path fill="#020101" opacity="1.000000" stroke="none" 
	d="
M278.051392,571.311035 
	C278.569183,571.092957 279.138123,571.172119 279.921295,571.447876 
	C279.457855,571.632263 278.780243,571.620239 278.051392,571.311035 
z"/>
<path fill="#F1E6E2" opacity="1.000000" stroke="none" 
	d="
M533.233643,507.758362 
	C545.231506,519.352417 556.920166,530.756775 568.733398,542.030579 
	C582.893433,555.544067 589.853699,571.807678 589.317078,591.572327 
	C588.990051,603.617493 589.011841,615.542969 582.838928,627.153076 
	C585.591614,627.153076 587.682922,627.101318 589.770935,627.162292 
	C597.803040,627.396729 603.031799,632.095703 603.070251,639.069519 
	C603.107849,645.889343 597.562561,650.811646 589.661133,650.807739 
	C549.832947,650.788086 510.004761,650.732971 470.176575,650.688965 
	C452.845154,650.669800 435.513702,650.655945 418.182312,650.621216 
	C413.027802,650.610901 409.197449,648.351868 407.049377,643.617004 
	C404.980682,639.057007 405.795563,634.830078 408.981812,631.048706 
	C412.408325,626.982178 417.164703,627.097168 421.857208,627.063232 
	C423.183960,627.053589 424.510834,627.061707 425.697937,627.061707 
	C423.965485,620.061462 421.496887,613.320618 420.734558,606.392090 
	C418.561737,586.643555 419.610046,567.320007 432.628387,550.778442 
	C435.909668,546.609253 439.691498,542.800476 443.490356,539.078186 
	C455.746002,527.069458 468.025543,515.081482 480.509155,503.311646 
	C483.525848,500.467407 483.758392,498.845764 480.642822,495.864532 
	C466.076355,481.926178 451.675415,467.812317 437.350983,453.624237 
	C426.023712,442.404907 420.848267,428.462372 420.080780,412.739044 
	C419.902191,409.079834 420.035431,405.406586 419.937805,401.742096 
	C419.628632,390.140381 420.558105,378.789246 427.277832,367.750580 
	C423.396637,367.750580 420.287201,368.049255 417.254211,367.694611 
	C408.155182,366.630585 403.372223,358.368073 407.191193,350.635315 
	C409.384338,346.194550 413.164520,344.696350 417.866913,344.705597 
	C433.698517,344.736694 449.530243,344.706329 465.361908,344.713409 
	C507.191010,344.732147 549.020081,344.742950 590.849182,344.795380 
	C598.288513,344.804688 603.120605,349.150116 603.168640,355.641602 
	C603.219055,362.468353 597.949341,367.409363 590.486450,367.510864 
	C588.350342,367.539917 586.213562,367.515289 583.654602,367.515289 
	C584.013794,369.032227 584.138916,370.139587 584.533447,371.140717 
	C591.396851,388.557037 590.207214,406.457275 587.248291,424.300964 
	C585.320068,435.929321 579.541138,445.861816 571.113464,454.149170 
	C557.332764,467.700348 543.533020,481.232452 529.668457,494.697601 
	C528.136841,496.185059 526.129761,497.183014 523.309692,499.116547 
	C527.474060,502.731537 530.226868,505.121155 533.233643,507.758362 
M511.174469,474.861725 
	C511.174469,477.940582 511.174469,481.019470 511.174469,484.098328 
	C510.827118,483.629822 510.479736,483.161316 510.132385,482.692810 
	C526.303894,467.389221 542.866882,452.467499 558.399841,436.541138 
	C562.851929,431.976318 565.942627,424.726471 566.816040,418.320312 
	C568.469727,406.192139 568.108582,393.784851 568.495911,381.490723 
	C568.634888,377.078217 568.518250,372.657654 568.518250,368.164215 
	C526.035828,368.164215 483.791351,368.164215 441.084442,368.164215 
	C441.084442,381.078522 441.042358,393.702393 441.095428,406.325836 
	C441.157227,421.019440 446.239014,433.578796 456.885529,443.898895 
	C469.446136,456.074371 481.832977,468.429016 494.302704,480.698364 
	C495.541962,481.917603 496.833618,483.083618 498.103271,484.276520 
	C500.163635,474.580658 496.653198,467.902008 489.561096,461.847198 
	C480.077759,453.750946 471.397156,444.698517 462.552795,435.875366 
	C456.828552,430.164825 453.516968,423.090057 451.538788,415.260712 
	C487.071564,415.260712 521.976135,415.260712 557.209412,415.260712 
	C555.349915,425.231354 549.997559,432.624603 543.189758,439.247192 
	C533.279480,448.887848 523.424255,458.587769 513.715698,468.430237 
	C512.370605,469.793915 511.997650,472.116455 511.174469,474.861725 
M546.286621,607.213196 
	C553.274902,613.933472 560.263123,620.653687 568.321777,628.403259 
	C568.321777,614.662903 568.132812,602.553101 568.373169,590.451904 
	C568.630615,577.490051 563.910706,566.824158 554.712158,557.873535 
	C542.896362,546.376282 531.142334,534.814575 519.467590,523.174377 
	C516.838379,520.552917 514.647217,517.492126 512.254333,514.633606 
	C511.226410,524.683960 511.204681,533.489990 511.233276,542.295959 
	C511.256195,549.345154 508.980133,552.890503 504.341492,552.893860 
	C500.112732,552.896973 497.912933,549.303101 497.910309,542.370300 
	C497.906982,533.498108 497.909515,524.625916 497.909515,514.477173 
	C481.608337,530.798645 465.781616,545.800232 451.094513,561.844910 
	C446.450836,566.917847 443.123566,574.556580 442.240753,581.413330 
	C440.657013,593.714661 441.371429,606.312927 441.147003,618.787476 
	C441.098114,621.505066 441.139893,624.224182 441.139893,628.061340 
	C443.447876,625.977417 444.816803,624.819336 446.098755,623.571838 
	C462.091614,608.008667 478.020264,592.379150 494.076813,576.882019 
	C502.313080,568.932678 506.669495,569.064575 514.817261,576.923889 
	C525.126038,586.867554 535.459167,596.786072 546.286621,607.213196 
z"/>
<path fill="#EEE4E1" opacity="1.000000" stroke="none" 
	d="
M651.181274,482.760864 
	C663.343079,491.471771 668.197021,504.369690 664.813416,518.390747 
	C661.742188,531.117798 650.782410,540.537109 637.104431,542.205139 
	C623.223328,543.898010 611.080139,537.974792 604.690063,526.394165 
	C597.574219,513.498108 599.801636,496.712799 609.952271,486.739807 
	C620.738464,476.142395 637.085754,474.470795 651.181274,482.760864 
M619.954407,502.756348 
	C616.551514,509.703705 617.424866,516.051697 622.472717,521.061157 
	C626.812500,525.367920 634.204285,526.391174 640.115906,523.503662 
	C645.971130,520.643677 649.213257,514.491455 648.168152,507.740326 
	C647.201294,501.494629 643.273010,497.666473 637.398682,495.899445 
	C630.259521,493.751953 624.723328,496.440796 619.954407,502.756348 
z"/>
<path fill="#F0E5E0" opacity="1.000000" stroke="none" 
	d="
M399.005188,486.998413 
	C409.988342,499.903900 411.257843,516.286194 402.452393,528.624390 
	C393.865662,540.656067 377.386200,545.918640 363.831238,540.568542 
	C351.227478,535.593872 343.961304,526.025635 343.073547,512.582458 
	C342.184387,499.117371 347.239838,487.933716 359.627228,481.471832 
	C372.002502,475.016327 384.273773,475.864624 395.785492,484.087158 
	C396.860229,484.854797 397.774475,485.847137 399.005188,486.998413 
M361.445892,515.759460 
	C367.845886,529.726685 384.016479,525.893921 388.670929,518.074219 
	C392.195953,512.152039 391.384430,505.085266 386.351349,499.709778 
	C381.745880,494.791077 373.842041,493.596558 367.994812,496.935577 
	C361.860535,500.438629 359.177429,507.520660 361.445892,515.759460 
z"/>
<path fill="#ECE2DE" opacity="1.000000" stroke="none" 
	d="
M691.553345,503.528931 
	C696.806396,499.445160 701.696472,498.730774 706.029602,501.525238 
	C710.105957,504.154114 712.232727,507.953857 711.441284,512.927551 
	C710.625977,518.051697 706.942627,521.731812 701.929321,522.469177 
	C697.236694,523.159302 693.339905,521.578064 690.718323,517.604126 
	C687.646057,512.947021 687.715149,508.259308 691.553345,503.528931 
z"/>
<path fill="#ECE2DE" opacity="1.000000" stroke="none" 
	d="
M310.563690,499.928833 
	C317.303589,502.295837 320.623291,507.016541 319.886719,512.656433 
	C319.174133,518.112610 315.136841,521.970581 309.573914,522.510925 
	C304.249451,523.028137 299.189636,519.452026 297.540802,514.006165 
	C295.251251,506.444244 301.111511,499.878662 310.563690,499.928833 
z"/>
<path fill="#F0E5E0" opacity="1.000000" stroke="none" 
	d="
M372.990845,435.974457 
	C371.218140,443.282837 367.211823,446.258331 361.361786,445.002899 
	C356.704132,444.003357 353.868958,439.409546 354.743591,434.279388 
	C355.507843,429.796600 358.838776,426.921936 363.365021,426.838928 
	C368.668945,426.741638 371.551849,429.356812 372.990845,435.974457 
z"/>
<path fill="#ECE2DE" opacity="1.000000" stroke="none" 
	d="
M651.008789,428.727844 
	C654.908508,433.445435 655.379761,437.523590 652.707336,441.111237 
	C649.686035,445.167267 644.217102,446.284760 640.377625,443.630646 
	C636.461792,440.923828 635.353333,435.441650 637.876160,431.258698 
	C640.748718,426.496002 644.921021,425.592407 651.008789,428.727844 
z"/>
<path fill="#ECE2DE" opacity="1.000000" stroke="none" 
	d="
M501.858368,682.156860 
	C499.592987,679.750000 496.796722,677.705078 495.980957,675.051331 
	C494.493988,670.214355 498.108887,665.479797 502.824432,664.787415 
	C507.853271,664.049011 512.438049,667.614868 513.015564,672.713562 
	C513.569946,677.607422 510.196198,681.842285 505.184265,682.431885 
	C504.217102,682.545654 503.209473,682.315674 501.858368,682.156860 
z"/>
<path fill="#060606" opacity="1.000000" stroke="none" 
	d="
M526.473755,292.025391 
	C529.220154,289.155457 532.330261,286.274658 535.737244,283.247925 
	C534.971924,288.140137 531.561646,290.755280 526.473755,292.025391 
z"/>
<path fill="#050606" opacity="1.000000" stroke="none" 
	d="
M373.654205,684.316589 
	C369.287598,684.697693 362.945709,679.657776 361.081177,674.019653 
	C360.139984,671.173645 358.929260,670.798279 356.330505,671.792664 
	C351.857330,673.504211 348.373199,671.783081 346.910370,666.904907 
	C345.760071,663.068970 344.894104,659.720703 339.760529,659.524719 
	C337.963257,659.456116 335.676117,657.589294 334.599823,655.910706 
	C330.826172,650.025391 327.610077,643.785278 323.919800,637.842896 
	C322.183258,635.046570 319.848846,632.621399 317.424194,630.014648 
	C315.549042,626.512085 313.672333,623.130005 312.603912,619.509460 
	C310.889465,613.699463 313.214172,608.435852 318.463379,604.819397 
	C322.923889,601.746216 328.883331,601.626587 333.318542,605.348083 
	C336.026489,607.620300 338.499512,610.624939 340.000916,613.808533 
	C349.008606,632.909241 357.642578,652.185730 366.550354,671.334229 
	C368.575928,675.688538 371.187134,679.770447 373.654205,684.316589 
z"/>
<path fill="#040404" opacity="1.000000" stroke="none" 
	d="
M332.393188,715.663147 
	C332.678009,715.927124 332.774231,716.345764 332.870453,716.764343 
	C332.599945,716.751160 332.329468,716.737915 331.954926,716.439087 
	C331.850891,716.153503 332.204620,715.817749 332.393188,715.663147 
z"/>
<path fill="#060606" opacity="1.000000" stroke="none" 
	d="
M685.288574,643.797974 
	C678.367249,642.294189 683.731995,638.451538 683.530579,634.806580 
	C682.014465,634.626282 680.386536,634.376587 678.749146,634.259644 
	C677.803955,634.192078 676.518311,634.764648 675.940308,634.323181 
	C670.339844,630.045349 667.456848,634.149292 664.452271,637.899475 
	C662.218994,640.686890 660.458374,640.377808 658.898804,636.833435 
	C662.944519,627.656799 666.836487,618.666443 671.436157,610.054016 
	C675.020386,603.342896 682.264465,601.025818 688.387939,603.716980 
	C694.882080,606.571045 698.328979,614.033875 695.864014,621.197388 
	C694.254883,625.873840 691.756042,630.244080 689.166870,634.706909 
	C687.687500,635.011780 686.696899,635.361328 685.706421,635.710876 
	C686.178223,636.907959 686.650024,638.105042 687.121826,639.302185 
	C686.594604,640.729797 686.067383,642.157471 685.288574,643.797974 
z"/>
<path fill="#060606" opacity="1.000000" stroke="none" 
	d="
M665.017334,687.453735 
	C663.432922,687.681763 662.022217,687.681763 659.097351,687.681763 
	C665.570618,680.484009 663.597046,669.185791 674.672974,666.042175 
	C671.749329,673.075745 668.470154,680.150757 665.017334,687.453735 
z"/>
<path fill="#060606" opacity="1.000000" stroke="none" 
	d="
M654.056274,646.295776 
	C655.670288,645.824219 657.074829,645.653992 659.391296,645.373169 
	C658.146973,647.847595 657.159119,649.619812 656.345581,651.468750 
	C654.535645,655.581909 652.852844,659.751038 651.040710,663.863281 
	C649.874939,666.508728 648.456360,668.520447 645.807983,664.521790 
	C648.386230,658.298523 651.116455,652.447815 654.056274,646.295776 
z"/>
<path fill="#060606" opacity="1.000000" stroke="none" 
	d="
M641.775146,672.236694 
	C642.638489,672.977844 643.985718,674.371704 643.716492,674.843872 
	C641.489014,678.750427 639.137268,682.616211 636.459412,686.224243 
	C634.904114,688.319885 632.807800,690.087585 630.710022,691.680237 
	C629.374390,692.694275 627.589966,693.117126 625.595459,693.715027 
	C632.574951,688.074158 637.851685,680.892578 641.775146,672.236694 
z"/>
<path fill="#020202" opacity="1.000000" stroke="none" 
	d="
M687.378418,639.088745 
	C686.650024,638.105042 686.178223,636.907959 685.706421,635.710876 
	C686.696899,635.361328 687.687500,635.011780 688.887817,634.925415 
	C688.610046,636.417480 688.122559,637.646423 687.378418,639.088745 
z"/>
<path fill="#060606" opacity="1.000000" stroke="none" 
	d="
M624.664917,693.873779 
	C623.807251,694.698853 622.621277,695.585022 621.221375,696.245178 
	C622.117126,695.324463 623.226868,694.629700 624.664917,693.873779 
z"/>
<path fill="#060606" opacity="1.000000" stroke="none" 
	d="
M510.794739,253.870026 
	C510.758484,256.508789 510.995544,258.716400 510.621216,260.814972 
	C510.026794,264.147217 507.754303,266.701874 504.419373,265.720215 
	C502.261871,265.085144 499.307434,262.348022 499.191467,260.404785 
	C498.637909,251.129486 498.811127,241.801163 498.991028,232.496826 
	C499.056671,229.100189 501.059113,226.929779 504.733978,226.967987 
	C508.629974,227.008484 510.591492,229.392365 510.709442,232.947708 
	C510.935242,239.755249 510.786896,246.575165 510.794739,253.870026 
z"/>
<path fill="#040404" opacity="1.000000" stroke="none" 
	d="
M770.023254,528.789856 
	C760.734802,527.019897 755.320007,521.802429 754.368774,514.083496 
	C753.587952,507.747406 757.585571,501.048035 763.955017,498.018646 
	C772.056702,494.165375 781.358521,497.848419 785.422974,506.518921 
	C789.146057,514.460999 785.551208,523.557068 777.140686,527.061218 
	C775.027466,527.941650 772.669800,528.235413 770.023254,528.789856 
z"/>
<path fill="#050606" opacity="1.000000" stroke="none" 
	d="
M227.899490,525.225342 
	C221.308716,518.657410 220.008972,510.809967 224.178482,504.237762 
	C228.285431,497.764038 236.430237,494.780121 243.301224,497.231934 
	C250.717728,499.878387 255.020737,507.189117 254.086823,514.978455 
	C252.766800,525.988159 237.986008,533.124817 227.899490,525.225342 
z"/>
<path fill="#030303" opacity="1.000000" stroke="none" 
	d="
M511.174561,474.428406 
	C511.997650,472.116455 512.370605,469.793915 513.715698,468.430237 
	C523.424255,458.587769 533.279480,448.887848 543.189758,439.247192 
	C549.997559,432.624603 555.349915,425.231354 557.209412,415.260712 
	C521.976135,415.260712 487.071564,415.260712 451.538788,415.260712 
	C453.516968,423.090057 456.828552,430.164825 462.552795,435.875366 
	C471.397156,444.698517 480.077759,453.750946 489.561096,461.847198 
	C496.653198,467.902008 500.163635,474.580658 498.103271,484.276520 
	C496.833618,483.083618 495.541962,481.917603 494.302704,480.698364 
	C481.832977,468.429016 469.446136,456.074371 456.885529,443.898895 
	C446.239014,433.578796 441.157227,421.019440 441.095428,406.325836 
	C441.042358,393.702393 441.084442,381.078522 441.084442,368.164215 
	C483.791351,368.164215 526.035828,368.164215 568.518250,368.164215 
	C568.518250,372.657654 568.634888,377.078217 568.495911,381.490723 
	C568.108582,393.784851 568.469727,406.192139 566.816040,418.320312 
	C565.942627,424.726471 562.851929,431.976318 558.399841,436.541138 
	C542.866882,452.467499 526.303894,467.389221 510.132385,482.692810 
	C510.479736,483.161316 510.827118,483.629822 511.174469,484.098328 
	C511.174469,481.019470 511.174469,477.940582 511.174561,474.428406 
z"/>
<path fill="#030303" opacity="1.000000" stroke="none" 
	d="
M546.034180,606.964355 
	C535.459167,596.786072 525.126038,586.867554 514.817261,576.923889 
	C506.669495,569.064575 502.313080,568.932678 494.076813,576.882019 
	C478.020264,592.379150 462.091614,608.008667 446.098755,623.571838 
	C444.816803,624.819336 443.447876,625.977417 441.139893,628.061340 
	C441.139893,624.224182 441.098114,621.505066 441.147003,618.787476 
	C441.371429,606.312927 440.657013,593.714661 442.240753,581.413330 
	C443.123566,574.556580 446.450836,566.917847 451.094513,561.844910 
	C465.781616,545.800232 481.608337,530.798645 497.909515,514.477173 
	C497.909515,524.625916 497.906982,533.498108 497.910309,542.370300 
	C497.912933,549.303101 500.112732,552.896973 504.341492,552.893860 
	C508.980133,552.890503 511.256195,549.345154 511.233276,542.295959 
	C511.204681,533.489990 511.226410,524.683960 512.254333,514.633606 
	C514.647217,517.492126 516.838379,520.552917 519.467590,523.174377 
	C531.142334,534.814575 542.896362,546.376282 554.712158,557.873535 
	C563.910706,566.824158 568.630615,577.490051 568.373169,590.451904 
	C568.132812,602.553101 568.321777,614.662903 568.321777,628.403259 
	C560.263123,620.653687 553.274902,613.933472 546.034180,606.964355 
z"/>
<path fill="#040404" opacity="1.000000" stroke="none" 
	d="
M620.150146,502.430084 
	C624.723328,496.440796 630.259521,493.751953 637.398682,495.899445 
	C643.273010,497.666473 647.201294,501.494629 648.168152,507.740326 
	C649.213257,514.491455 645.971130,520.643677 640.115906,523.503662 
	C634.204285,526.391174 626.812500,525.367920 622.472717,521.061157 
	C617.424866,516.051697 616.551514,509.703705 620.150146,502.430084 
z"/>
<path fill="#050606" opacity="1.000000" stroke="none" 
	d="
M361.289490,515.403320 
	C359.177429,507.520660 361.860535,500.438629 367.994812,496.935577 
	C373.842041,493.596558 381.745880,494.791077 386.351349,499.709778 
	C391.384430,505.085266 392.195953,512.152039 388.670929,518.074219 
	C384.016479,525.893921 367.845886,529.726685 361.289490,515.403320 
z"/>
</svg>